<svg width="202.0" height="183.0" xmlns="http://www.w3.org/2000/svg" xmlns:xlink="http://www.w3.org/1999/xlink" xml:space="preserve" overflow="hidden"><rect width="202.0" height="183.0" fill="white"/><g transform="translate(20,20)"><defs><clipPath id="clip0"><rect x="0" y="0" width="162" height="143"/></clipPath></defs><g clip-path="url(#clip0)"><path d="M309.493 175.664 342.285 175.664 342.285 175.999 309.493 175.999ZM341.615 173.825 345.628 175.832 341.615 177.838Z" transform="matrix(1.00109 0 0 1 -197.643 -87.8429)"/><path d="M309.493 146.188 342.285 146.188 342.285 146.524 309.493 146.524ZM341.615 144.35 345.628 146.356 341.615 148.363Z" transform="matrix(1.00109 0 0 1 -197.643 -87.8429)"/><path d="M216.689 116.589 241.787 116.589 241.787 142.124 216.689 142.124Z" fill="#00CC99" transform="matrix(1.00109 0 0 1 -197.643 -87.8429)"/><path d="M216.251 175.54 241.349 175.54 241.349 201.076 216.251 201.076Z" fill="#00CC99" transform="matrix(1.00109 0 0 1 -197.643 -87.8429)"/><path d="M216.251 205.307 241.203 205.307 241.203 230.843 216.251 230.843Z" fill="#00CC99" transform="matrix(1.00109 0 0 1 -197.643 -87.8429)"/><path d="M216.689 146.064 241.787 146.064 241.787 171.6 216.689 171.6Z" fill="#00CC99" transform="matrix(1.00109 0 0 1 -197.643 -87.8429)"/><text font-family="Poppins,Poppins_MSFontService,sans-serif" font-weight="400" font-size="64" transform="matrix(0.146078 0 0 0.145918 60.0846 36)">Class </text><text font-family="Poppins,Poppins_MSFontService,sans-serif" font-weight="400" font-size="64" transform="matrix(0.146078 0 0 0.145918 51.504 47)">Attention </text><text font-family="Poppins,Poppins_MSFontService,sans-serif" font-weight="400" font-size="64" transform="matrix(0.146078 0 0 0.145918 59.6216 58)">Score</text><path d="M241.922 129.332 268.481 166.299 268.21 166.494 241.651 129.527ZM269.586 164.683 270.296 169.112 266.326 167.024Z" transform="matrix(1.00109 0 0 1 -197.643 -87.8429)"/><path d="M241.844 158.748 267.207 167.872 267.093 168.187 241.73 159.063ZM267.2 165.915 270.296 169.162 265.841 169.691Z" transform="matrix(1.00109 0 0 1 -197.643 -87.8429)"/><path d="M0.0925176-0.139268 26.1651 17.181 25.98 17.4596-0.0925176 0.139268ZM26.6257 15.2791 28.858 19.1708 24.4053 18.6215Z" transform="matrix(1.00109 0 0 -1 43.9693 100.447)"/><path d="M0.143856-0.0852098 27.4195 45.9631 27.1318 46.1336-0.143856 0.0852098ZM28.6611 44.4504 28.9798 48.9254 25.2086 46.4954Z" transform="matrix(1.00109 0 0 -1 43.8233 130.202)"/><text font-family="Poppins,Poppins_MSFontService,sans-serif" font-weight="400" font-size="64" transform="matrix(0.146078 0 0 0.145918 19.7088 12)">Input </text><text font-family="Poppins,Poppins_MSFontService,sans-serif" font-weight="400" font-size="64" transform="matrix(0.146078 0 0 0.145918 15.4842 23)">Tokens</text><path d="M315.038 133.661 340.136 133.661 340.136 159.197 315.038 159.197Z" fill="#00CC99" transform="matrix(1.00109 0 0 1 -197.643 -87.8429)"/><path d="M315.038 162.991 340.136 162.991 340.136 188.527 315.038 188.527Z" fill="#00CC99" transform="matrix(1.00109 0 0 1 -197.643 -87.8429)"/><path d="M315.111 192.539 340.209 192.539 340.209 218.075 315.111 218.075Z" stroke="#69CA00" stroke-width="0.501594" stroke-linejoin="round" stroke-miterlimit="10" fill="none" transform="matrix(1.00109 0 0 1 -197.643 -87.8429)"/><text fill="#69CA00" font-family="Poppins SemiBold,Poppins SemiBold_MSFontService,sans-serif" font-weight="600" font-size="55" transform="matrix(0.146078 0 0 0.145918 122.911 120)">CLS </text><text font-family="Poppins,Poppins_MSFontService,sans-serif" font-weight="400" font-size="64" transform="matrix(0.146078 0 0 0.145918 116.113 30)">Top</text><text font-family="Poppins,Poppins_MSFontService,sans-serif" font-weight="400" font-size="64" transform="matrix(0.146078 0 0 0.145918 133.604 30)">-</text><text font-family="Poppins,Poppins_MSFontService,sans-serif" font-weight="400" font-size="64" transform="matrix(0.146078 0 0 0.145918 138.793 30)">K </text><text font-family="Poppins,Poppins_MSFontService,sans-serif" font-weight="400" font-size="64" transform="matrix(0.146078 0 0 0.145918 113.936 41)">Tokens</text><path d="M270.314 156.352 295.412 156.352 295.412 181.887 270.314 181.887Z" stroke="#69CA00" stroke-width="0.501594" stroke-linejoin="round" stroke-miterlimit="10" fill="none" transform="matrix(1.00109 0 0 1 -197.643 -87.8429)"/><text fill="#69CA00" font-family="Poppins SemiBold,Poppins SemiBold_MSFontService,sans-serif" font-weight="600" font-size="55" transform="matrix(0.146078 0 0 0.145918 78.0638 84)">CLS </text></g></g></svg>