<svg width="378.0" height="205.0" xmlns="http://www.w3.org/2000/svg" xmlns:xlink="http://www.w3.org/1999/xlink" xml:space="preserve" overflow="hidden"><rect width="378.0" height="205.0" fill="white"/><g transform="translate(20,20)"><defs><clipPath id="clip0"><rect x="0" y="0" width="338" height="165"/></clipPath></defs><g clip-path="url(#clip0)"><path d="M291.187 228.725 318.988 228.725 318.988 256.707 291.187 256.707Z" fill="#BAFFBA" transform="matrix(1.00124 0 0 1 -198.462 -148.031)"/><path d="M199.39 148.301 272.322 148.301 272.322 228.635 199.39 228.635Z" stroke="#69CA00" stroke-width="0.620555" stroke-linejoin="round" stroke-miterlimit="10" fill="none" transform="matrix(1.00124 0 0 1 -198.462 -148.031)"/><text fill="#69CA00" font-family="Poppins SemiBold,Poppins SemiBold_MSFontService,sans-serif" font-weight="600" font-size="73" transform="matrix(0.180749 0 0 0.180525 9.05912 37)">(</text><text fill="#69CA00" font-family="Poppins SemiBold,Poppins SemiBold_MSFontService,sans-serif" font-weight="600" font-size="73" transform="matrix(0.180749 0 0 0.180525 15.4585 37)">Frozen</text><text fill="#69CA00" font-family="Poppins SemiBold,Poppins SemiBold_MSFontService,sans-serif" font-weight="600" font-size="73" transform="matrix(0.180749 0 0 0.180525 59.4363 37)">) </text><text fill="#69CA00" font-family="Poppins SemiBold,Poppins SemiBold_MSFontService,sans-serif" font-weight="600" font-size="73" transform="matrix(0.180749 0 0 0.180525 10.1996 53)">Encoder</text><path d="M300.665 172.492 420.894 172.492 420.894 204.084 300.665 204.084Z" stroke="#0068DF" stroke-width="0.620555" stroke-linejoin="round" stroke-miterlimit="10" fill="none" transform="matrix(1.00124 0 0 1 -198.462 -148.031)"/><text fill="#0070C0" font-family="Poppins SemiBold,Poppins SemiBold_MSFontService,sans-serif" font-weight="600" font-size="73" transform="matrix(0.180749 0 0 0.180525 110.269 44)">Cross Attention</text><path d="M446.168 148.301 535.528 148.301 535.528 228.635 446.168 228.635Z" stroke="#69CA00" stroke-width="0.620555" stroke-linejoin="round" stroke-miterlimit="10" fill="none" transform="matrix(1.00124 0 0 1 -198.462 -148.031)"/><text fill="#69CA00" font-family="Poppins SemiBold,Poppins SemiBold_MSFontService,sans-serif" font-weight="600" font-size="73" transform="matrix(0.180749 0 0 0.180525 264.361 37)">(</text><text fill="#69CA00" font-family="Poppins SemiBold,Poppins SemiBold_MSFontService,sans-serif" font-weight="600" font-size="73" transform="matrix(0.180749 0 0 0.180525 270.761 37)">Frozen</text><text fill="#69CA00" font-family="Poppins SemiBold,Poppins SemiBold_MSFontService,sans-serif" font-weight="600" font-size="73" transform="matrix(0.180749 0 0 0.180525 314.738 37)">) </text><text fill="#69CA00" font-family="Poppins SemiBold,Poppins SemiBold_MSFontService,sans-serif" font-weight="600" font-size="73" transform="matrix(0.180749 0 0 0.180525 280.882 53)">LLM</text><path d="M326.209 228.725 353.829 228.725 353.829 256.707 326.209 256.707Z" fill="#C6E0FF" transform="matrix(1.00124 0 0 1 -198.462 -148.031)"/><path d="M362.133 228.725 389.754 228.725 389.754 256.707 362.133 256.707Z" fill="#FFE3CC" transform="matrix(1.00124 0 0 1 -198.462 -148.031)"/><path d="M0.206851-5.48677e-07 0.206905 20.4246-0.206797 20.4246-0.206851 5.48677e-07ZM2.48228 19.5973 6.51501e-05 24.5617-2.48217 19.5973Z" transform="matrix(1.00124 0 0 -1 107.003 80.5251)"/><path d="M0.206851-5.48677e-07 0.206905 20.4246-0.206797 20.4246-0.206851 5.48677e-07ZM2.48228 19.5973 6.51501e-05 24.5617-2.48217 19.5973Z" transform="matrix(1.00124 0 0 -1 142.068 80.5251)"/><path d="M0.206851-5.48677e-07 0.206905 20.4246-0.206797 20.4246-0.206851 5.48677e-07ZM2.48228 19.5973 6.51501e-05 24.5617-2.48217 19.5973Z" transform="matrix(1.00124 0 0 -1 178.037 80.5251)"/><path d="M398.058 228.906 425.678 228.906 425.678 256.887 398.058 256.887Z" fill="#CCF1FC" transform="matrix(1.00124 0 0 1 -198.462 -148.031)"/><path d="M0.206851-5.48677e-07 0.206905 20.4246-0.206797 20.4246-0.206851 5.48677e-07ZM2.48228 19.5973 6.51501e-05 24.5617-2.48217 19.5973Z" transform="matrix(1.00124 0 0 -1 213.826 80.8861)"/><text font-family="Poppins,Poppins_MSFontService,sans-serif" font-weight="400" font-size="64" transform="matrix(0.180749 0 0 0.180525 80.021 123)">Learned Query Tokens</text><path d="M0.00117115-0.206848 24.0904-0.0704581 24.088 0.343238-0.00117115 0.206848ZM23.2758-2.35047 28.2262 0.159813 23.2477 2.61388Z" transform="matrix(1.00124 0 0 -1 74.1069 40.4178)"/><path d="M420.806 188.08 441.978 188.214 441.976 188.629 420.802 188.495ZM441.166 185.934 446.114 188.447 441.133 190.898Z" transform="matrix(1.00124 0 0 1 -198.462 -148.031)"/><path d="M198.217 284.688 226.018 284.688 226.018 312.85 198.217 312.85Z" fill="#BAFFBA" transform="matrix(1.00124 0 0 1 -198.462 -148.031)"/><path d="M233.239 284.688 261.039 284.688 261.039 312.85 233.239 312.85Z" fill="#C6E0FF" transform="matrix(1.00124 0 0 1 -198.462 -148.031)"/><path d="M269.163 284.688 296.783 284.688 296.783 312.85 269.163 312.85Z" fill="#FFE3CC" transform="matrix(1.00124 0 0 1 -198.462 -148.031)"/><path d="M305.088 284.869 332.708 284.869 332.708 313.031 305.088 313.031Z" fill="#CCF1FC" transform="matrix(1.00124 0 0 1 -198.462 -148.031)"/><text font-family="Poppins,Poppins_MSFontService,sans-serif" font-weight="400" font-size="64" transform="matrix(0.180749 0 0 0.180525 141.445 154)">Distilled tokens</text></g></g></svg>