<svg width="2347.0" height="1834.0" xmlns="http://www.w3.org/2000/svg" xmlns:xlink="http://www.w3.org/1999/xlink" xml:space="preserve" overflow="hidden"><rect width="2347.0" height="1834.0" fill="white"/><g transform="translate(20,20)"><g transform="translate(-1009 -222)"><path d="M1805.5 818.5 2604.2 1308.12" stroke="#31FF31" stroke-width="6.875" stroke-miterlimit="8" stroke-dasharray="27.5 20.625" fill="none" fill-rule="evenodd"/><path d="M1319.5 381.5 1973.52 767.696" stroke="#31FF31" stroke-width="6.875" stroke-miterlimit="8" stroke-dasharray="27.5 20.625" fill="none" fill-rule="evenodd"/><rect x="1973" y="768" width="1289" height="1079" stroke="#0068DF" stroke-width="13.75" stroke-miterlimit="8" fill="none"/><path d="M2267 768 2267 1847.67" stroke="#0068DF" stroke-width="10.3125" stroke-miterlimit="8" fill="none" fill-rule="evenodd"/><path d="M2602 768 2602 1847.67" stroke="#0068DF" stroke-width="10.3125" stroke-miterlimit="8" fill="none" fill-rule="evenodd"/><path d="M2933 768 2933 1847.67" stroke="#0068DF" stroke-width="10.3125" stroke-miterlimit="8" fill="none" fill-rule="evenodd"/><path d="M1973 1307 3261.91 1307" stroke="#0068DF" stroke-width="10.3125" stroke-miterlimit="8" fill="none" fill-rule="evenodd"/><path d="M0 0 1288.91 0.000360892" stroke="#0068DF" stroke-width="10.3125" stroke-miterlimit="8" fill="none" fill-rule="evenodd" transform="matrix(1 0 0 -1 1973 1019)"/><path d="M1973 1548 3261.91 1548" stroke="#0068DF" stroke-width="10.3125" stroke-miterlimit="8" fill="none" fill-rule="evenodd"/><rect x="1321" y="381" width="484" height="437" stroke="#0068DF" stroke-width="13.75" stroke-miterlimit="8" fill="none"/><path d="M1563 381 1563 817.413" stroke="#0068DF" stroke-width="10.3125" stroke-miterlimit="8" fill="none" fill-rule="evenodd"/><path d="M1321 600 1805.24 600" stroke="#0068DF" stroke-width="10.3125" stroke-miterlimit="8" fill="none" fill-rule="evenodd"/><path d="M1805.5 381.5 2617.35 767.696" stroke="#31FF31" stroke-width="6.875" stroke-miterlimit="8" stroke-dasharray="27.5 20.625" fill="none" fill-rule="evenodd"/><path d="M1321.5 818.5 1973.13 1308.12" stroke="#31FF31" stroke-width="6.875" stroke-miterlimit="8" stroke-dasharray="27.5 20.625" fill="none" fill-rule="evenodd"/><rect x="1973" y="768" width="629" height="539" fill="#0EAFE0" fill-opacity="0.239216"/><rect x="1326" y="388" width="237" height="212" fill="#0EAFE0" fill-opacity="0.239216"/><text font-family="Poppins,Poppins_MSFontService,sans-serif" font-weight="400" font-size="83" transform="matrix(1 0 0 1 2255.73 568)">Pooling, Convolution, etc</text><text font-family="Poppins,Poppins_MSFontService,sans-serif" font-weight="400" font-size="83" transform="matrix(1 0 0 1 2045.26 1943)">Original Image Patch Tokens</text><text font-family="Poppins,Poppins_MSFontService,sans-serif" font-weight="400" font-size="83" transform="matrix(1 0 0 1 1099.54 324)">Pooled Representation</text><path d="M1095.75 301.928 1088.02 302.487 1088.49 302.421 1080.83 304.048 1081.24 303.932 1073.7 306.557 1074.06 306.406 1066.7 309.958 1067.02 309.785 1059.9 314.191 1060.17 314.004 1053.35 319.194 1053.59 318.996 1047.13 324.899 1047.34 324.692 1041.31 331.237 1041.49 331.021 1035.94 338.136 1036.1 337.91 1031.1 345.524 1031.24 345.286 1026.84 353.327 1026.97 353.074 1023.23 361.472 1023.34 361.201 1020.33 369.883 1020.41 369.591 1018.19 378.488 1018.25 378.172 1016.87 387.211 1016.91 386.871 1016.43 395.981 1016.42 395.488 1016.84 400.047 1016.74 399.458 1017.97 404.009 1017.79 403.505 1019.83 408.038 1019.61 407.63 1022.41 412.137 1022.19 411.817 1025.73 416.287 1025.51 416.039 1029.77 420.465 1029.57 420.273 1034.52 424.645 1034.34 424.495 1039.94 428.805 1039.78 428.687 1046.02 432.926 1045.88 432.831 1052.73 436.99 1052.59 436.913 1060.03 440.983 1059.91 440.92 1067.9 444.891 1067.79 444.839 1076.31 448.704 1076.21 448.66 1085.23 452.409 1085.14 452.371 1094.64 455.996 1094.55 455.964 1104.5 459.454 1104.42 459.427 1114.79 462.775 1114.71 462.751 1125.48 465.947 1125.37 465.916 1148 471.82 1147.86 471.787 1171.75 476.977 1171.62 476.951 1196.58 481.358 1196.45 481.338 1222.25 484.889 1222.12 484.874 1248.56 487.499 1248.41 487.487 1279.43 489.186 1279.06 496.051 1247.96 494.348 1221.38 491.709 1195.45 488.14 1170.36 483.71 1146.33 478.49 1123.58 472.554 1112.72 469.33 1102.26 465.956 1092.23 462.436 1082.64 458.777 1073.52 454.987 1064.89 451.075 1056.79 447.046 1049.23 442.907 1042.23 438.663 1035.83 434.318 1030.05 429.874 1024.91 425.331 1020.45 420.686 1016.68 415.933 1013.65 411.064 1011.41 406.075 1010.02 400.976 1009.55 395.871 1010.05 386.343 1011.48 376.975 1013.78 367.775 1016.89 358.81 1020.74 350.15 1025.28 341.863 1030.44 334.017 1036.16 326.681 1042.39 319.925 1049.06 313.818 1056.14 308.433 1063.55 303.844 1071.25 300.129 1079.19 297.368 1087.29 295.647 1095.25 295.071ZM1274.95 478.774 1302.15 493.105 1274.37 506.268Z"/></g></g></svg>